<svg xmlns="http://www.w3.org/2000/svg" xmlns:xlink="http://www.w3.org/1999/xlink"><symbol id="ask" viewBox="0 0 22 20">
<path fill-rule="evenodd" clip-rule="evenodd" d="M0 0V0.866035V14.7226V15.5886H0.846154H4.23077V18.1867V20L5.60577 18.8633L9.59856 15.5886H21.1538H22V14.7226V0.866035V0H21.1538H0.846154H0ZM1.69232 1.73206H20.3077V13.8565H9.30771H9.01684L8.77886 14.046L5.92309 16.3735V14.7226V13.8565H5.07694H1.69232V1.73206ZM13.0625 3.84302L11.8462 5.08794L13.6442 6.92827H5.9231V8.66034H13.6442L11.7933 10.5548L13.0096 11.7997L16.2885 8.41677L16.8967 7.7943L16.2885 7.17184L13.0625 3.84302Z" fill="#2B2B2B"/>
</symbol><symbol id="bell" viewBox="0 0 15 19">
<path id="Shape" fill-rule="evenodd" clip-rule="evenodd" d="M7.5 0C6.67157 0 6 0.654353 6 1.46154C6 1.52386 6.01567 1.58396 6.02344 1.64423C3.43046 2.28997 1.5 4.58473 1.5 7.30769V13.8846C1.5 14.2975 1.17377 14.6154 0.75 14.6154H0V16.0769H5.39062C5.30493 16.3077 5.25 16.5497 5.25 16.8077C5.25 18.0098 6.26624 19 7.5 19C8.73376 19 9.75 18.0098 9.75 16.8077C9.75 16.5497 9.69507 16.3077 9.60938 16.0769H15V14.6154H14.25C13.8262 14.6154 13.5 14.2975 13.5 13.8846V7.51322C13.5 4.76661 11.6176 2.31911 8.97656 1.64423C8.98433 1.58396 9 1.52386 9 1.46154C9 0.654353 8.32843 0 7.5 0ZM7.17188 2.92307C7.28099 2.91536 7.3888 2.92315 7.5 2.92307C7.54766 2.92304 7.59262 2.92167 7.64062 2.92307C10.0907 2.99472 12 5.08751 12 7.51322V13.8846C12 14.1426 12.0549 14.3846 12.1406 14.6154H2.85938C2.94507 14.3846 3 14.1426 3 13.8846V7.30769C3 4.98683 4.83364 3.08839 7.17188 2.92307ZM7.5 16.0769C7.9231 16.0769 8.25 16.3954 8.25 16.8077C8.25 17.2199 7.9231 17.5385 7.5 17.5385C7.0769 17.5385 6.75 17.2199 6.75 16.8077C6.75 16.3954 7.0769 16.0769 7.5 16.0769Z" fill="white"/>
</symbol><symbol id="modulbank-logo" viewBox="0 0 28 28">
    <rect x="5" y="5" width="6.70954" height="6.70954" stroke="#F8FAFF" stroke-width="2">
    </rect>
    <rect x="5" y="16.2896" width="6.70954" height="6.70954" stroke="#F8FAFF" stroke-width="2">
    </rect>
    <rect x="16.2904" y="5" width="6.70954" height="6.70954" stroke="#F8FAFF" stroke-width="2">
    </rect>
    <rect x="16.2904" y="16.2896" width="6.70954" height="6.70954" stroke="#F8FAFF" stroke-width="2">
    </rect>
</symbol><symbol id="modulbank" viewBox="0 0 24 24">
<path fill-rule="evenodd" clip-rule="evenodd" d="M0.000494764 4.7997L0 0H4.7997L4.80069 4.7997H0.000494764ZM9.60114 0H14.4003H19.2001V4.7997H14.4003H9.60114V0ZM19.2001 9.59941V9.59966L14.4003 9.59966H9.60114V14.3989H14.4003V14.4013H19.2001V19.1996V23.9998H23.9993V19.1996V14.3989H19.2001V9.59966H23.9995L24 4.79971H19.2001H14.4003V9.59941H19.2001ZM9.60114 24V19.2L14.4003 19.1996V24H9.60114ZM9.60089 4.79971H4.80069V9.59941H9.60089V4.79971ZM4.7997 14.3989L4.80069 9.59966H9.60114V14.3989H4.7997ZM9.60089 19.2001V14.3989H4.7997H0V19.2001V23.9998H4.7997L4.7997 19.2001H9.60089ZM0.000494764 4.79971L0 9.59966L4.80069 9.59966L4.80069 4.79971H0.000494764Z" fill="#00417B"/>
</symbol><symbol id="more" viewBox="0 0 22 4">
<path fill-rule="evenodd" clip-rule="evenodd" d="M1.83333 0C0.820811 0 0 0.895431 0 2C0 3.10457 0.820811 4 1.83333 4C2.84586 4 3.66667 3.10457 3.66667 2C3.66667 0.895431 2.84586 0 1.83333 0ZM11 0C9.9875 0 9.16669 0.895431 9.16669 2C9.16669 3.10457 9.9875 4 11 4C12.0125 4 12.8334 3.10457 12.8334 2C12.8334 0.895431 12.0125 0 11 0ZM20.1666 0C19.1541 0 18.3333 0.895431 18.3333 2C18.3333 3.10457 19.1541 4 20.1666 4C21.1792 4 22 3.10457 22 2C22 0.895431 21.1792 0 20.1666 0Z" fill="black"/>
</symbol><symbol id="repeat" viewBox="0 0 20 20">
<path fill-rule="evenodd" clip-rule="evenodd" d="M10 0V1.66667C14.6121 1.66667 18.3333 5.38789 18.3333 10C18.3333 14.6121 14.6121 18.3333 10 18.3333C5.38789 18.3333 1.66667 14.6121 1.66667 10C1.66667 7.27786 2.98751 4.87769 5 3.35938V7.5H6.66667V1.66667V0.833333H5.83333H0V2.5H3.41146C1.32783 4.33226 0 7.01412 0 10C0 15.5129 4.48711 20 10 20C15.5129 20 20 15.5129 20 10C20 4.48711 15.5129 0 10 0Z" fill="black"/>
</symbol><symbol id="search" viewBox="0 0 36 36">
<path id="Shape" fill-rule="evenodd" clip-rule="evenodd" d="M22.0024 0C14.2884 0 8.00486 6.28351 8.00486 13.9976C8.00486 17.35 9.17919 20.4198 11.1543 22.8335L0 33.9879L2.01215 36L13.1665 24.8457C15.5802 26.8208 18.65 27.9951 22.0024 27.9951C29.7165 27.9951 36 21.7116 36 13.9976C36 6.28351 29.7165 0 22.0024 0ZM22.0024 2.79951C28.2035 2.79951 33.2005 7.79648 33.2005 13.9976C33.2005 20.1987 28.2035 25.1956 22.0024 25.1956C15.8013 25.1956 10.8044 20.1987 10.8044 13.9976C10.8044 7.79648 15.8013 2.79951 22.0024 2.79951Z" fill="#2B2B2B"/>
</symbol><symbol id="sprite"><symbol id="ask" viewBox="0 0 22 20">
<path fill-rule="evenodd" clip-rule="evenodd" d="M0 0V0.866035V14.7226V15.5886H0.846154H4.23077V18.1867V20L5.60577 18.8633L9.59856 15.5886H21.1538H22V14.7226V0.866035V0H21.1538H0.846154H0ZM1.69232 1.73206H20.3077V13.8565H9.30771H9.01684L8.77886 14.046L5.92309 16.3735V14.7226V13.8565H5.07694H1.69232V1.73206ZM13.0625 3.84302L11.8462 5.08794L13.6442 6.92827H5.9231V8.66034H13.6442L11.7933 10.5548L13.0096 11.7997L16.2885 8.41677L16.8967 7.7943L16.2885 7.17184L13.0625 3.84302Z" fill="#2B2B2B"/>
</symbol><symbol id="bell" viewBox="0 0 15 19">
<path id="Shape" fill-rule="evenodd" clip-rule="evenodd" d="M7.5 0C6.67157 0 6 0.654353 6 1.46154C6 1.52386 6.01567 1.58396 6.02344 1.64423C3.43046 2.28997 1.5 4.58473 1.5 7.30769V13.8846C1.5 14.2975 1.17377 14.6154 0.75 14.6154H0V16.0769H5.39062C5.30493 16.3077 5.25 16.5497 5.25 16.8077C5.25 18.0098 6.26624 19 7.5 19C8.73376 19 9.75 18.0098 9.75 16.8077C9.75 16.5497 9.69507 16.3077 9.60938 16.0769H15V14.6154H14.25C13.8262 14.6154 13.5 14.2975 13.5 13.8846V7.51322C13.5 4.76661 11.6176 2.31911 8.97656 1.64423C8.98433 1.58396 9 1.52386 9 1.46154C9 0.654353 8.32843 0 7.5 0ZM7.17188 2.92307C7.28099 2.91536 7.3888 2.92315 7.5 2.92307C7.54766 2.92304 7.59262 2.92167 7.64062 2.92307C10.0907 2.99472 12 5.08751 12 7.51322V13.8846C12 14.1426 12.0549 14.3846 12.1406 14.6154H2.85938C2.94507 14.3846 3 14.1426 3 13.8846V7.30769C3 4.98683 4.83364 3.08839 7.17188 2.92307ZM7.5 16.0769C7.9231 16.0769 8.25 16.3954 8.25 16.8077C8.25 17.2199 7.9231 17.5385 7.5 17.5385C7.0769 17.5385 6.75 17.2199 6.75 16.8077C6.75 16.3954 7.0769 16.0769 7.5 16.0769Z" fill="white"/>
</symbol><symbol id="modulbank" viewBox="0 0 24 24">
<path fill-rule="evenodd" clip-rule="evenodd" d="M0.000494764 4.7997L0 0H4.7997L4.80069 4.7997H0.000494764ZM9.60114 0H14.4003H19.2001V4.7997H14.4003H9.60114V0ZM19.2001 9.59941V9.59966L14.4003 9.59966H9.60114V14.3989H14.4003V14.4013H19.2001V19.1996V23.9998H23.9993V19.1996V14.3989H19.2001V9.59966H23.9995L24 4.79971H19.2001H14.4003V9.59941H19.2001ZM9.60114 24V19.2L14.4003 19.1996V24H9.60114ZM9.60089 4.79971H4.80069V9.59941H9.60089V4.79971ZM4.7997 14.3989L4.80069 9.59966H9.60114V14.3989H4.7997ZM9.60089 19.2001V14.3989H4.7997H0V19.2001V23.9998H4.7997L4.7997 19.2001H9.60089ZM0.000494764 4.79971L0 9.59966L4.80069 9.59966L4.80069 4.79971H0.000494764Z" fill="#00417B"/>
</symbol><symbol id="more" viewBox="0 0 22 4">
<path fill-rule="evenodd" clip-rule="evenodd" d="M1.83333 0C0.820811 0 0 0.895431 0 2C0 3.10457 0.820811 4 1.83333 4C2.84586 4 3.66667 3.10457 3.66667 2C3.66667 0.895431 2.84586 0 1.83333 0ZM11 0C9.9875 0 9.16669 0.895431 9.16669 2C9.16669 3.10457 9.9875 4 11 4C12.0125 4 12.8334 3.10457 12.8334 2C12.8334 0.895431 12.0125 0 11 0ZM20.1666 0C19.1541 0 18.3333 0.895431 18.3333 2C18.3333 3.10457 19.1541 4 20.1666 4C21.1792 4 22 3.10457 22 2C22 0.895431 21.1792 0 20.1666 0Z" fill="black"/>
</symbol><symbol id="repeat" viewBox="0 0 20 20">
<path fill-rule="evenodd" clip-rule="evenodd" d="M10 0V1.66667C14.6121 1.66667 18.3333 5.38789 18.3333 10C18.3333 14.6121 14.6121 18.3333 10 18.3333C5.38789 18.3333 1.66667 14.6121 1.66667 10C1.66667 7.27786 2.98751 4.87769 5 3.35938V7.5H6.66667V1.66667V0.833333H5.83333H0V2.5H3.41146C1.32783 4.33226 0 7.01412 0 10C0 15.5129 4.48711 20 10 20C15.5129 20 20 15.5129 20 10C20 4.48711 15.5129 0 10 0Z" fill="black"/>
</symbol><symbol id="search" viewBox="0 0 36 36">
<path id="Shape" fill-rule="evenodd" clip-rule="evenodd" d="M22.0024 0C14.2884 0 8.00486 6.28351 8.00486 13.9976C8.00486 17.35 9.17919 20.4198 11.1543 22.8335L0 33.9879L2.01215 36L13.1665 24.8457C15.5802 26.8208 18.65 27.9951 22.0024 27.9951C29.7165 27.9951 36 21.7116 36 13.9976C36 6.28351 29.7165 0 22.0024 0ZM22.0024 2.79951C28.2035 2.79951 33.2005 7.79648 33.2005 13.9976C33.2005 20.1987 28.2035 25.1956 22.0024 25.1956C15.8013 25.1956 10.8044 20.1987 10.8044 13.9976C10.8044 7.79648 15.8013 2.79951 22.0024 2.79951Z" fill="#2B2B2B"/>
</symbol><symbol id="star" viewBox="0 0 21 20">
<path fill-rule="evenodd" clip-rule="evenodd" d="M10.5 0L9.8366 1.51203L7.45752 6.84994L1.64706 7.4685L0 7.65178L1.23529 8.75143L5.55882 12.669L4.34641 18.3963L4.00327 20L5.44444 19.1753L10.5 16.2428L15.5556 19.1753L16.9967 20L16.6536 18.3963L15.4412 12.669L19.7647 8.75143L21 7.65178L19.3529 7.4685L13.5425 6.84994L11.1634 1.51203L10.5 0ZM10.5 3.5968L12.3758 7.83506L12.5588 8.22452L12.9706 8.27034L17.5687 8.75144L14.1373 11.8442L13.817 12.142L13.9085 12.5544L14.8693 17.0676L10.866 14.7766L10.5 14.5475L10.134 14.7766L6.13074 17.0676L7.09153 12.5544L7.18303 12.142L6.86277 11.8442L3.4314 8.75144L8.02944 8.27034L8.4412 8.22452L8.62421 7.83506L10.5 3.5968Z" fill="#2B2B2B"/>
</symbol><symbol id="type" viewBox="0 0 17 17">
<path fill-rule="evenodd" clip-rule="evenodd" d="M8.5 0L8.32292 0.0442133L0.53125 2.16645L0 2.3212V2.85176V16.2926V17H0.708333H7.08333H7.79167V16.2926V14.1704H9.20833V16.2926V17H9.91667H16.2917H17V16.2926V2.85176V2.3212L16.4688 2.16645L8.67708 0.0442133L8.5 0ZM8.50002 1.45904L15.5834 3.38231V15.5852H10.625V13.4629V12.7555H9.91669H7.08335H6.37502V13.4629V15.5852H1.41669V3.38231L8.50002 1.45904ZM3.54169 4.26658V5.6814H4.95835V4.26658H3.54169ZM6.375 4.26658V5.6814H7.79167V4.26658H6.375ZM9.20831 4.26658V5.6814H10.625V4.26658H9.20831ZM12.0417 4.26658V5.6814H13.4584V4.26658H12.0417ZM3.54169 7.09623V8.51105H4.95835V7.09623H3.54169ZM6.375 7.09623V8.51105H7.79167V7.09623H6.375ZM9.20831 7.09623V8.51105H10.625V7.09623H9.20831ZM12.0417 7.09623V8.51105H13.4584V7.09623H12.0417ZM3.54169 9.92588V11.3407H4.95835V9.92588H3.54169ZM6.375 9.92588V11.3407H7.79167V9.92588H6.375ZM9.20831 9.92588V11.3407H10.625V9.92588H9.20831ZM12.0417 9.92588V11.3407H13.4584V9.92588H12.0417ZM3.54169 12.7555V14.1703H4.95835V12.7555H3.54169ZM12.0417 12.7555V14.1703H13.4584V12.7555H12.0417Z" fill="white"/>
</symbol></symbol><symbol id="star" viewBox="0 0 21 20">
<path fill-rule="evenodd" clip-rule="evenodd" d="M10.5 0L9.8366 1.51203L7.45752 6.84994L1.64706 7.4685L0 7.65178L1.23529 8.75143L5.55882 12.669L4.34641 18.3963L4.00327 20L5.44444 19.1753L10.5 16.2428L15.5556 19.1753L16.9967 20L16.6536 18.3963L15.4412 12.669L19.7647 8.75143L21 7.65178L19.3529 7.4685L13.5425 6.84994L11.1634 1.51203L10.5 0ZM10.5 3.5968L12.3758 7.83506L12.5588 8.22452L12.9706 8.27034L17.5687 8.75144L14.1373 11.8442L13.817 12.142L13.9085 12.5544L14.8693 17.0676L10.866 14.7766L10.5 14.5475L10.134 14.7766L6.13074 17.0676L7.09153 12.5544L7.18303 12.142L6.86277 11.8442L3.4314 8.75144L8.02944 8.27034L8.4412 8.22452L8.62421 7.83506L10.5 3.5968Z" fill="#2B2B2B"/>
</symbol><symbol id="type" viewBox="0 0 17 17">
<path fill-rule="evenodd" clip-rule="evenodd" d="M8.5 0L8.32292 0.0442133L0.53125 2.16645L0 2.3212V2.85176V16.2926V17H0.708333H7.08333H7.79167V16.2926V14.1704H9.20833V16.2926V17H9.91667H16.2917H17V16.2926V2.85176V2.3212L16.4688 2.16645L8.67708 0.0442133L8.5 0ZM8.50002 1.45904L15.5834 3.38231V15.5852H10.625V13.4629V12.7555H9.91669H7.08335H6.37502V13.4629V15.5852H1.41669V3.38231L8.50002 1.45904ZM3.54169 4.26658V5.6814H4.95835V4.26658H3.54169ZM6.375 4.26658V5.6814H7.79167V4.26658H6.375ZM9.20831 4.26658V5.6814H10.625V4.26658H9.20831ZM12.0417 4.26658V5.6814H13.4584V4.26658H12.0417ZM3.54169 7.09623V8.51105H4.95835V7.09623H3.54169ZM6.375 7.09623V8.51105H7.79167V7.09623H6.375ZM9.20831 7.09623V8.51105H10.625V7.09623H9.20831ZM12.0417 7.09623V8.51105H13.4584V7.09623H12.0417ZM3.54169 9.92588V11.3407H4.95835V9.92588H3.54169ZM6.375 9.92588V11.3407H7.79167V9.92588H6.375ZM9.20831 9.92588V11.3407H10.625V9.92588H9.20831ZM12.0417 9.92588V11.3407H13.4584V9.92588H12.0417ZM3.54169 12.7555V14.1703H4.95835V12.7555H3.54169ZM12.0417 12.7555V14.1703H13.4584V12.7555H12.0417Z" fill="white"/>
</symbol></svg>